<mxfile host="app.diagrams.net" agent="Mozilla/5.0 (Macintosh; Intel Mac OS X 10_15_7) AppleWebKit/605.1.15 (KHTML, like Gecko) Version/17.1 Safari/605.1.15" version="26.0.14">
  <diagram name="Page-1" id="MCl1-eREKRpEPSuyr52Q">
    <mxGraphModel dx="1242" dy="740" grid="1" gridSize="10" guides="1" tooltips="1" connect="1" arrows="1" fold="1" page="1" pageScale="1" pageWidth="850" pageHeight="1100" math="0" shadow="0">
      <root>
        <mxCell id="0" />
        <mxCell id="1" parent="0" />
        <mxCell id="NFSUYhE9E-6En8fXDCop-8" style="edgeStyle=orthogonalEdgeStyle;rounded=0;orthogonalLoop=1;jettySize=auto;html=1;exitX=0.5;exitY=0.5;exitDx=0;exitDy=0;exitPerimeter=0;" edge="1" parent="1" source="NFSUYhE9E-6En8fXDCop-1" target="NFSUYhE9E-6En8fXDCop-4">
          <mxGeometry relative="1" as="geometry" />
        </mxCell>
        <mxCell id="NFSUYhE9E-6En8fXDCop-9" style="edgeStyle=orthogonalEdgeStyle;rounded=0;orthogonalLoop=1;jettySize=auto;html=1;exitX=0.5;exitY=0.5;exitDx=0;exitDy=0;exitPerimeter=0;entryX=0;entryY=0.5;entryDx=0;entryDy=0;" edge="1" parent="1" source="NFSUYhE9E-6En8fXDCop-1" target="NFSUYhE9E-6En8fXDCop-5">
          <mxGeometry relative="1" as="geometry" />
        </mxCell>
        <mxCell id="NFSUYhE9E-6En8fXDCop-20" style="edgeStyle=orthogonalEdgeStyle;rounded=0;orthogonalLoop=1;jettySize=auto;html=1;exitX=0.5;exitY=0.5;exitDx=0;exitDy=0;exitPerimeter=0;entryX=0;entryY=0.5;entryDx=0;entryDy=0;" edge="1" parent="1" source="NFSUYhE9E-6En8fXDCop-1" target="NFSUYhE9E-6En8fXDCop-19">
          <mxGeometry relative="1" as="geometry" />
        </mxCell>
        <mxCell id="NFSUYhE9E-6En8fXDCop-1" value="Диспетчер" style="shape=umlActor;verticalLabelPosition=bottom;verticalAlign=top;html=1;outlineConnect=0;" vertex="1" parent="1">
          <mxGeometry x="100" y="310" width="30" height="60" as="geometry" />
        </mxCell>
        <mxCell id="NFSUYhE9E-6En8fXDCop-4" value="Управление ремонтными зонами и бригадами" style="rounded=1;whiteSpace=wrap;html=1;" vertex="1" parent="1">
          <mxGeometry x="220" y="310" width="120" height="60" as="geometry" />
        </mxCell>
        <mxCell id="NFSUYhE9E-6En8fXDCop-10" style="edgeStyle=orthogonalEdgeStyle;rounded=0;orthogonalLoop=1;jettySize=auto;html=1;exitX=1;exitY=0.5;exitDx=0;exitDy=0;entryX=0;entryY=0.5;entryDx=0;entryDy=0;" edge="1" parent="1" source="NFSUYhE9E-6En8fXDCop-5" target="NFSUYhE9E-6En8fXDCop-7">
          <mxGeometry relative="1" as="geometry" />
        </mxCell>
        <mxCell id="NFSUYhE9E-6En8fXDCop-5" value="Регистрация дефекта" style="rounded=1;whiteSpace=wrap;html=1;" vertex="1" parent="1">
          <mxGeometry x="220" y="420" width="120" height="60" as="geometry" />
        </mxCell>
        <mxCell id="NFSUYhE9E-6En8fXDCop-16" style="edgeStyle=orthogonalEdgeStyle;rounded=0;orthogonalLoop=1;jettySize=auto;html=1;exitX=1;exitY=0.5;exitDx=0;exitDy=0;entryX=0;entryY=0.5;entryDx=0;entryDy=0;" edge="1" parent="1" source="NFSUYhE9E-6En8fXDCop-7" target="NFSUYhE9E-6En8fXDCop-15">
          <mxGeometry relative="1" as="geometry" />
        </mxCell>
        <mxCell id="NFSUYhE9E-6En8fXDCop-7" value="Назначение ремонта" style="rounded=1;whiteSpace=wrap;html=1;" vertex="1" parent="1">
          <mxGeometry x="410" y="420" width="120" height="60" as="geometry" />
        </mxCell>
        <mxCell id="NFSUYhE9E-6En8fXDCop-30" style="edgeStyle=orthogonalEdgeStyle;rounded=0;orthogonalLoop=1;jettySize=auto;html=1;exitX=0;exitY=1;exitDx=0;exitDy=0;exitPerimeter=0;entryX=0.5;entryY=0;entryDx=0;entryDy=0;" edge="1" parent="1" source="NFSUYhE9E-6En8fXDCop-12" target="NFSUYhE9E-6En8fXDCop-7">
          <mxGeometry relative="1" as="geometry">
            <Array as="points">
              <mxPoint x="470" y="370" />
            </Array>
          </mxGeometry>
        </mxCell>
        <mxCell id="NFSUYhE9E-6En8fXDCop-31" style="edgeStyle=orthogonalEdgeStyle;rounded=0;orthogonalLoop=1;jettySize=auto;html=1;exitX=0.5;exitY=0.5;exitDx=0;exitDy=0;exitPerimeter=0;entryX=0.5;entryY=1;entryDx=0;entryDy=0;" edge="1" parent="1" source="NFSUYhE9E-6En8fXDCop-12" target="NFSUYhE9E-6En8fXDCop-22">
          <mxGeometry relative="1" as="geometry" />
        </mxCell>
        <mxCell id="NFSUYhE9E-6En8fXDCop-12" value="Бригадир" style="shape=umlActor;verticalLabelPosition=bottom;verticalAlign=top;html=1;outlineConnect=0;" vertex="1" parent="1">
          <mxGeometry x="487.5" y="310" width="30" height="60" as="geometry" />
        </mxCell>
        <mxCell id="NFSUYhE9E-6En8fXDCop-15" value="Регистрация начала и конца ремонта" style="rounded=1;whiteSpace=wrap;html=1;" vertex="1" parent="1">
          <mxGeometry x="600" y="420" width="120" height="60" as="geometry" />
        </mxCell>
        <mxCell id="NFSUYhE9E-6En8fXDCop-18" style="edgeStyle=orthogonalEdgeStyle;rounded=0;orthogonalLoop=1;jettySize=auto;html=1;exitX=0.5;exitY=0;exitDx=0;exitDy=0;exitPerimeter=0;entryX=0.5;entryY=1;entryDx=0;entryDy=0;" edge="1" parent="1" source="NFSUYhE9E-6En8fXDCop-17" target="NFSUYhE9E-6En8fXDCop-15">
          <mxGeometry relative="1" as="geometry" />
        </mxCell>
        <mxCell id="NFSUYhE9E-6En8fXDCop-17" value="Ремонтник" style="shape=umlActor;verticalLabelPosition=bottom;verticalAlign=top;html=1;outlineConnect=0;" vertex="1" parent="1">
          <mxGeometry x="645" y="540" width="30" height="60" as="geometry" />
        </mxCell>
        <mxCell id="NFSUYhE9E-6En8fXDCop-36" style="edgeStyle=orthogonalEdgeStyle;rounded=0;orthogonalLoop=1;jettySize=auto;html=1;exitX=1;exitY=0.5;exitDx=0;exitDy=0;entryX=0;entryY=0.5;entryDx=0;entryDy=0;" edge="1" parent="1" source="NFSUYhE9E-6En8fXDCop-19" target="NFSUYhE9E-6En8fXDCop-35">
          <mxGeometry relative="1" as="geometry" />
        </mxCell>
        <mxCell id="NFSUYhE9E-6En8fXDCop-19" value="Мониторинг свободных и занятых мест" style="rounded=1;whiteSpace=wrap;html=1;" vertex="1" parent="1">
          <mxGeometry x="220" y="200" width="120" height="60" as="geometry" />
        </mxCell>
        <mxCell id="NFSUYhE9E-6En8fXDCop-24" style="edgeStyle=orthogonalEdgeStyle;rounded=0;orthogonalLoop=1;jettySize=auto;html=1;exitX=1;exitY=1;exitDx=0;exitDy=0;exitPerimeter=0;entryX=0.5;entryY=0;entryDx=0;entryDy=0;" edge="1" parent="1" source="NFSUYhE9E-6En8fXDCop-21" target="NFSUYhE9E-6En8fXDCop-22">
          <mxGeometry relative="1" as="geometry" />
        </mxCell>
        <mxCell id="NFSUYhE9E-6En8fXDCop-21" value="Отдел контроля качества" style="shape=umlActor;verticalLabelPosition=bottom;verticalAlign=top;html=1;outlineConnect=0;" vertex="1" parent="1">
          <mxGeometry x="487.5" y="80" width="30" height="60" as="geometry" />
        </mxCell>
        <mxCell id="NFSUYhE9E-6En8fXDCop-22" value="Получение отчетов о ремонтах" style="rounded=1;whiteSpace=wrap;html=1;" vertex="1" parent="1">
          <mxGeometry x="537.5" y="220" width="120" height="60" as="geometry" />
        </mxCell>
        <mxCell id="NFSUYhE9E-6En8fXDCop-27" style="edgeStyle=orthogonalEdgeStyle;rounded=0;orthogonalLoop=1;jettySize=auto;html=1;exitX=0;exitY=1;exitDx=0;exitDy=0;exitPerimeter=0;" edge="1" parent="1" source="NFSUYhE9E-6En8fXDCop-26" target="NFSUYhE9E-6En8fXDCop-22">
          <mxGeometry relative="1" as="geometry" />
        </mxCell>
        <mxCell id="NFSUYhE9E-6En8fXDCop-26" value="Начальник цеха" style="shape=umlActor;verticalLabelPosition=bottom;verticalAlign=top;html=1;outlineConnect=0;" vertex="1" parent="1">
          <mxGeometry x="677.5" y="80" width="30" height="60" as="geometry" />
        </mxCell>
        <mxCell id="NFSUYhE9E-6En8fXDCop-32" value="Получение месячных отчетов" style="rounded=1;whiteSpace=wrap;html=1;" vertex="1" parent="1">
          <mxGeometry x="712.5" y="220" width="120" height="60" as="geometry" />
        </mxCell>
        <mxCell id="NFSUYhE9E-6En8fXDCop-34" style="edgeStyle=orthogonalEdgeStyle;rounded=0;orthogonalLoop=1;jettySize=auto;html=1;exitX=0.5;exitY=0;exitDx=0;exitDy=0;exitPerimeter=0;entryX=0.5;entryY=1;entryDx=0;entryDy=0;" edge="1" parent="1" source="NFSUYhE9E-6En8fXDCop-33" target="NFSUYhE9E-6En8fXDCop-32">
          <mxGeometry relative="1" as="geometry" />
        </mxCell>
        <mxCell id="NFSUYhE9E-6En8fXDCop-33" value="Бухгалтерия" style="shape=umlActor;verticalLabelPosition=bottom;verticalAlign=top;html=1;outlineConnect=0;" vertex="1" parent="1">
          <mxGeometry x="757.5" y="310" width="30" height="60" as="geometry" />
        </mxCell>
        <mxCell id="NFSUYhE9E-6En8fXDCop-35" value="Назначить автомобиль на ремонтную зону" style="rounded=1;whiteSpace=wrap;html=1;" vertex="1" parent="1">
          <mxGeometry x="390" y="200" width="120" height="60" as="geometry" />
        </mxCell>
      </root>
    </mxGraphModel>
  </diagram>
</mxfile>
